<svg width="150" height="150" viewBox="0 0 150 150" fill="none" xmlns="http://www.w3.org/2000/svg" style="width: 200px; height: 200px;"><style>
     .connecting20-1 {animation:connecting20-1 2.5s infinite;}
     @keyframes connecting20-1 {
         0%{opacity: 0;}
         10%{opacity: 0;}
         40%{opacity: 1;}
         100%{opacity: 1;}
     }
     .connecting20-2 {animation:connecting20-2 2.5s infinite;}
     @keyframes connecting20-2 {
         0%{opacity: 0;}
         20%{opacity: 0;}
         50%{opacity: 1;}
         100%{opacity: 1;}
     }
     .connecting20-3 {animation:connecting20-3 2.5s infinite;}
     @keyframes connecting20-3 {
         0%{opacity: 0;}
         30%{opacity: 0;}
         60%{opacity: 1;}
         100%{opacity: 1;}
     }
     @media (prefers-reduced-motion: reduce) {
         .connecting20-1, .connecting20-2, .connecting20-3 {
             animation: none;
         }
     }
    </style><path class="strokeCls1 connecting20-1" d="M122.893 74.6975C121.802 73.4915 120.458 72.7241 118.947 72.7241C117.435 72.7241 116.092 73.4915 115 74.6975" stroke="rgba(68,212,59,1)" stroke-width="2px" stroke-miterlimit="10" stroke-linecap="round" stroke-linejoin="round" style="animation-duration: 2.5s;"></path><path class="strokeCls1 connecting20-2" d="M128.733 68.804C126.129 65.76 122.655 63.8707 118.867 63.8707C115.078 63.8707 111.684 65.76 109 68.804" stroke="rgba(68,212,59,1)" stroke-width="2px" stroke-miterlimit="10" stroke-linecap="round" stroke-linejoin="round" style="animation-duration: 2.5s;"></path><path class="strokeCls1 connecting20-3" d="M135.547 63.8933C131.047 58.9728 125.237 56 118.773 56C112.309 56 106.5 58.9728 102 63.8933" stroke="rgba(68,212,59,1)" stroke-width="2px" stroke-miterlimit="10" stroke-linecap="round" stroke-linejoin="round" style="animation-duration: 2.5s;"></path><path class="fillCls4" d="M85.3073 39.1836L83.6875 38.375C83.6875 38.375 80.6562 42.375 77.375 42.0312L77.0938 43.4759L77.375 45.4688L84.277 43.4759L85.3073 39.1836Z" fill="rgba(35,35,35,1)" stroke-width="2px" style="animation-duration: 2.5s;"></path><path class="fillCls2" d="M30.364 46.5669C30.364 46.5669 32.7475 59.1108 30.5453 65.1141C30.0311 66.5152 28.8228 67.5471 27.3574 67.8322L15.7695 70.0888L20.4047 80.7339L36.5437 88.6328L46.3299 87.774L51.8239 81.9355L48.5618 71.2905C48.5618 71.2905 42.0376 70.9476 42.5519 67.6855C43.0662 64.4235 44.9552 52.0608 44.9552 52.0608L39.9755 46.5669H30.364V46.5669Z" fill="#FAD485" stroke-width="2px" style="animation-duration: 2.5s;"></path><path class="fillCls1" d="M54.7436 35.2345C54.7436 35.2345 54.9151 57.212 48.5623 61.6757C48.5623 61.6757 38.2601 62.7059 35.1695 57.5548L32.0788 48.4543C32.0788 48.4543 25.5547 50.6862 25.3832 43.8191C25.2118 36.9505 30.1915 38.668 30.8772 40.2142C31.5645 41.7587 33.2805 32.6598 33.2805 32.6598L36.1997 25.2769L43.5827 27.8516L50.2782 31.9724L54.7436 35.2345Z" fill="#FFDE99" stroke-width="2px" style="animation-duration: 2.5s;"></path><path class="fillCls3" d="M61.4425 31.1151C60.0694 26.48 51.3117 12.7426 47.5354 15.319C45.2656 16.8668 44.7134 18.53 44.7018 19.7679C44.0524 17.8723 42.4584 15.2712 38.6079 15.4904C32.9293 15.8151 34.7623 19.3591 34.9815 19.7481C34.6997 19.2684 31.4821 14.0399 26.0738 16.0064C20.4085 18.0668 19.3783 23.9052 21.2656 29.9135C21.2656 29.9135 16.8019 28.7118 17.8321 32.4882C18.8623 36.2662 24.7486 37.7547 25.4969 41.9036C25.4969 41.9036 27.3085 38.2657 29.6639 39.497C30.3595 39.8613 30.8442 40.5338 31.0271 41.297C31.2645 42.281 31.8052 43.8041 32.7694 42.9618C34.1425 41.7602 33.6282 29.0547 37.7491 30.4278C41.87 31.8008 43.5876 36.0931 47.7084 36.7805C47.7084 36.7805 42.5573 34.7201 42.0431 30.942C42.0431 30.942 43.52 33.5596 47.2683 35.8146C51.2062 38.1832 55.8941 38.9761 60.4139 38.1536C60.4139 38.1536 55.2628 37.9821 55.2628 37.2948C55.2612 37.2948 62.8156 35.7503 61.4425 31.1151Z" fill="rgba(97,101,113,1)" stroke-width="2px" style="animation-duration: 2.5s;"></path><path class="fillCls4" d="M25.379 68.2178C25.379 68.2178 16.6263 66.4837 10.6164 70.9491C4.60655 75.4145 7.86864 116.622 14.0499 120.227L16.4532 121.771L11.3021 134.305C11.3021 134.305 56.6301 136.194 60.5796 134.305L60.873 125.927C61.2504 115.151 61.0378 104.364 60.2367 93.6123C60.2367 93.6123 84.7905 94.6425 87.5367 89.8343C90.2845 85.026 91.1416 58.4134 85.3048 39.1821C85.3048 39.1821 80.3251 45.3634 77.063 43.4744C77.063 43.4744 75.174 70.9458 75.174 77.8145C75.174 77.8145 67.7911 76.9557 61.6098 74.2096C55.4285 71.4618 47.7801 71.2161 47.7801 71.2161C47.7801 71.2161 45.7362 82.026 37.5719 81.4211C28.3032 80.7354 25.379 68.2178 25.379 68.2178Z" fill="rgba(35,35,35,1)" stroke-width="2px" style="animation-duration: 2.5s;"></path><path class="fillCls1" d="M60.7441 131.472C60.7441 131.472 62.9859 130.7 64.3606 131.215C65.7337 131.729 66.9354 133.104 71.5722 131.215C76.2073 129.326 77.7535 127.952 77.7535 127.952L79.9837 131.215L79.4694 120.225L73.2881 116.792C73.2881 116.792 64.3965 122.543 60.9629 122.723L60.7441 131.472Z" fill="#FFDE99" stroke-width="2px" style="animation-duration: 2.5s;"></path><path class="fillCls5" d="M59.67 122.147C59.67 122.147 51.3112 119.025 39.8074 114.733C28.3036 110.44 25.0415 110.783 25.0415 110.783C25.0415 110.783 25.3843 94.987 23.8398 87.604C23.8398 87.604 28.5805 93.6797 30.125 101.75C31.6695 109.82 60.9416 117.125 60.9416 117.125V122.658L59.67 122.147Z" fill="rgba(0,0,0,1)" stroke-width="2px" style="animation-duration: 2.5s;"></path><path class="fillCls4" d="M58.8306 121.833L60.9495 122.658L60.8411 131.746L57.082 131.484C57.082 131.484 59.8608 131.277 58.8306 121.833Z" fill="rgba(35,35,35,1)" stroke-width="2px" style="animation-duration: 2.5s;"></path><path class="fillCls5" d="M60.5836 134.305C60.5836 134.305 60.6462 133.352 60.7385 131.742C59.8501 131.668 58.8841 131.607 57.8358 131.557C32.0803 130.356 16.4556 121.771 16.4556 121.771L13.6875 128.562C13.6875 128.562 56.6341 136.194 60.5836 134.305Z" fill="rgba(0,0,0,1)" stroke-width="2px" style="animation-duration: 2.5s;"></path><path class="fillCls5" d="M78 89.8358C68.3852 88.977 59.7246 87.6039 59.7246 87.6039L60.2883 94.288C60.2719 94.0638 60.257 93.838 60.2405 93.6138C60.2405 93.6138 84.7944 94.644 87.5405 89.8358C88.7487 87.7226 89.591 81.3946 89.6603 73.3325C87.7795 79.2056 84.8291 90.444 78 89.8358Z" fill="rgba(0,0,0,1)" stroke-width="2px" style="animation-duration: 2.5s;"></path><path class="fillCls1" d="M83.6759 38.4124C83.6759 38.4124 76.8073 26.2212 72.515 23.3036L70.1117 22.4448C70.1117 22.4448 62.5573 31.7168 60.1523 34.1201C60.1523 34.1201 61.8699 35.3217 65.132 32.4025L66.6765 30.858L64.4446 34.4629L66.8479 39.0981H68.9084L69.4227 38.4107L70.2815 39.6124L71.999 39.0981L72.3419 38.5838L73.5435 39.0981L73.8864 38.4107C73.8864 38.4107 74.7452 40.814 77.1485 41.6728L77.5243 42.2481C77.5259 42.2497 80.4139 42.3602 83.6759 38.4124Z" fill="#FFDE99" stroke-width="2px" style="animation-duration: 2.5s;"></path><path class="fillCls2" d="M75.178 32.8309C71.5731 32.1435 69.6841 27.3369 69.6841 27.3369L66.6791 30.8561L64.4473 34.4611L66.8506 39.0962H68.911L69.4253 38.4089L70.2841 39.6105L72.0017 39.0962L72.3445 38.582L73.5462 39.0962L73.8214 38.5457C73.8148 38.4715 73.8099 38.399 73.8033 38.3248C73.6995 37.1907 73.35 36.8611 73.0846 36.7803H73.4588L75.178 32.8309Z" fill="#FAD485" stroke-width="2px" style="animation-duration: 2.5s;"></path><path class="fillCls5" d="M77.0667 43.4761C77.0667 43.4761 75.1926 70.748 75.1777 77.7403C76.2739 77.742 78.489 77.7646 80.5 79.375C80.5 79.375 78.1876 55.5898 79.4074 43.7002C78.5915 43.9162 77.7871 43.8948 77.0667 43.4761Z" fill="rgba(0,0,0,1)" stroke-width="2px" style="animation-duration: 2.5s;"></path><path class="fillCls6" d="M126.892 135.344H38.8516C38.0521 135.344 37.4043 134.696 37.4043 133.897V133.776C37.4043 132.977 38.0521 132.329 38.8516 132.329H126.892C127.691 132.329 128.339 132.977 128.339 133.776V133.897C128.339 134.696 127.691 135.344 126.892 135.344Z" fill="rgba(255,255,255,1)" stroke-width="2px" style="animation-duration: 2.5s;"></path><path class="fillCls6" d="M141.314 85.0923H87.4082C86.6813 85.0923 86.0368 85.5588 85.8093 86.2494L71.6153 129.362C71.256 130.453 72.067 131.576 73.2142 131.576H127.12C127.847 131.576 128.492 131.109 128.719 130.419L142.913 87.3077C143.271 86.2148 142.46 85.0923 141.314 85.0923Z" fill="rgba(255,255,255,1)" stroke-width="2px" style="animation-duration: 2.5s;"></path><path class="fillCls7" d="M109.258 110.4C110.814 109.334 111.403 107.488 110.574 106.278C109.745 105.067 107.811 104.95 106.255 106.016C104.699 107.083 104.11 108.928 104.939 110.139C105.769 111.349 107.703 111.466 109.258 110.4Z" fill="rgba(53,210,49,1)" stroke-width="2px" style="animation-duration: 2.5s;"></path></svg>